HIERARCHY
ROOT Hips
{
	OFFSET 0.00000 0.00000 0.00000
	CHANNELS 6 Xposition Yposition Zposition Zrotation Yrotation Xrotation 
	JOINT LHipJoint
	{
		OFFSET 0 0 0
		CHANNELS 3 Zrotation Yrotation Xrotation
		JOINT LeftHip
		{
			OFFSET 1.57338 -1.94743 0.52196
			CHANNELS 3 Zrotation Yrotation Xrotation
			JOINT LeftKnee
			{
				OFFSET 2.60333 -7.15259 0.00000
				CHANNELS 3 Zrotation Yrotation Xrotation
				JOINT LeftAnkle
				{
					OFFSET 2.77855 -7.63400 0.00000
					CHANNELS 3 Zrotation Yrotation Xrotation
					JOINT LeftToe
					{
						OFFSET 0.19847 -0.54529 2.28466
						CHANNELS 3 Zrotation Yrotation Xrotation
						End Site
						{
							OFFSET 0.00000 -0.00000 1.17993
						}
					}
				}
			}
		}
	}
	JOINT RHipJoint
	{
		OFFSET 0 0 0
		CHANNELS 3 Zrotation Yrotation Xrotation
		JOINT RightHip
		{
			OFFSET -1.61527 -1.94743 0.52196
			CHANNELS 3 Zrotation Yrotation Xrotation
			JOINT RightKnee
			{
				OFFSET -2.53829 -6.97390 0.00000
				CHANNELS 3 Zrotation Yrotation Xrotation
				JOINT RightAnkle
				{
					OFFSET -2.80762 -7.71387 0.00000
					CHANNELS 3 Zrotation Yrotation Xrotation
					JOINT RightToe
					{
						OFFSET -0.30536 -0.83898 2.28801
						CHANNELS 3 Zrotation Yrotation Xrotation
						End Site
						{
							OFFSET -0.00000 -0.00000 1.21323
						}
					}
				}
			}
		}
	}
	JOINT lowerback
	{
		OFFSET 0 0 0
		CHANNELS 3 Zrotation Yrotation Xrotation
		JOINT Chest
		{
			OFFSET -0.04381 1.99497 -0.19778
			CHANNELS 3 Zrotation Yrotation Xrotation
			JOINT Chest2
			{
				OFFSET -0.01959 2.01295 -0.04372
				CHANNELS 3 Zrotation Yrotation Xrotation
				JOINT lowerneck
				{
					OFFSET 0 0 0
					CHANNELS 3 Zrotation Yrotation Xrotation
					JOINT Neck
					{
						OFFSET -0.05459 1.76913 0.09708
						CHANNELS 3 Zrotation Yrotation Xrotation
						JOINT Head
						{
							OFFSET 0.09461 1.77368 -0.11172
							CHANNELS 3 Zrotation Yrotation Xrotation
							End Site
							{
								OFFSET 0.03812 1.78157 -0.04834
							}
						}
					}
				}
				JOINT LeftCollar
				{
					OFFSET 0 0 0
					CHANNELS 3 Zrotation Yrotation Xrotation
					JOINT LeftShoulder
					{
						OFFSET 3.50922 1.24034 -0.28866
CHANNELS 3 Zrotation Xrotation Yrotation
						JOINT LeftElbow
						{
OFFSET 0 -5.401880 0.000000
CHANNELS 3 Zrotation Xrotation Yrotation
							JOINT LeftWrist
							{
OFFSET 0 -3.685590 0.000000
CHANNELS 3 Zrotation Xrotation Yrotation
								JOINT lhand
								{
									OFFSET 0 0 0
CHANNELS 3 Zrotation Xrotation Yrotation
									JOINT LFingers
									{
OFFSET 0 -0.617530 0.000000
CHANNELS 3 Zrotation Xrotation Yrotation
										End Site
										{
OFFSET 0 -0.497870 0.000000
										}
									}
								}
								JOINT LThumb
								{
OFFSET 0 0.000000 0.000000
CHANNELS 3 Zrotation Xrotation Yrotation
									End Site
									{
OFFSET 0 -0.505470 0.505470
									}
								}
							}
						}
					}
				}
				JOINT RightCollar
				{
					OFFSET 0 0 0
					CHANNELS 3 Zrotation Yrotation Xrotation
					JOINT RightShoulder
					{
						OFFSET -2.95373 1.39649 -0.27346
CHANNELS 3 Zrotation Xrotation Yrotation
						JOINT RightElbow
						{
OFFSET 0 -6.106700 -0.000000
CHANNELS 3 Zrotation Xrotation Yrotation
							JOINT RightWrist
							{
OFFSET 0 -3.630520 0.000000
CHANNELS 3 Zrotation Xrotation Yrotation
								JOINT rhand
								{
									OFFSET 0 0 0
CHANNELS 3 Zrotation Xrotation Yrotation
									JOINT RFingers
									{
OFFSET 0 -0.583850 0.000000
CHANNELS 3 Zrotation Xrotation Yrotation
										End Site
										{
OFFSET 0 -0.470710 0.000000
										}
									}
								}
								JOINT RThumb
								{
OFFSET 0 0.000000 0.000000
CHANNELS 3 Zrotation Xrotation Yrotation
									End Site
									{
OFFSET 0 -0.477900 0.477900
									}
								}
							}
						}
					}
				}
			}
		}
	}
}
MOTION
Frames: 4
Frame Time: 0.008333333333333333
-3.343427 16.576554 4.083176 690.830696 -61.403460 -683.040851 0.000000 0.000000 0.000000 25.843754 -22.184987 -60.540387 12.536179 18.608033 67.678247 -0.105329 -8.073149 8.984974 0.737316 -5.484862 -15.297018 0.000000 0.000000 0.000000 23.063741 2.195860 3.280893 -4.766598 -13.115995 39.804387 -0.006576 -14.653684 -20.841692 -0.414436 4.131393 -11.446839 -10.088197 11.791270 8.765404 -9.183620 14.093887 4.337657 -5.531273 6.756724 -0.216431 -9.758521 2.061738 -1.784257 -1.410027 3.630315 19.221448 1.362356 0.896987 6.020873 0.000000 0.000000 0.000000 -5.225897 35.745204 -11.111908 147.611744 -42.851229 106.994720 -10.936337 -56.066872 -20.376732 0.000000 0.000000 0.000000 -7.125000 0.000000 0.000000 -36.690252 46.773986 1.854773 0.000000 0.000000 0.000000 -1.403502 -45.228396 37.927706 -89.741401 -59.998364 -59.775991 1.253895 -80.589279 -6.640321 0.000000 0.000000 0.000000 7.125000 0.000000 0.000000 20.307978 23.358180 11.295727
-3.570620 16.303266 4.306038 658.048224 -70.763636 -657.825404 0.000000 0.000000 0.000000 22.085782 -12.205341 -39.453529 10.870721 17.869026 62.358319 0.413529 -10.705581 -12.664125 2.120453 -9.110683 -26.143530 0.000000 0.000000 0.000000 17.746397 3.298235 -0.843641 -5.824064 -14.255155 44.270575 -0.407654 -13.548751 -23.422035 -0.300671 3.441250 -9.517693 -13.040669 11.175071 7.250177 -9.645233 13.076347 4.196787 -4.207062 6.069529 -0.095679 -7.180075 6.531369 -5.997297 -3.993181 10.209096 19.126833 0.622459 3.898749 6.716938 0.000000 0.000000 0.000000 -6.405774 36.951410 3.503811 128.036150 -53.719307 92.239718 -18.594206 -79.065857 -28.082459 0.000000 0.000000 0.000000 -7.125000 0.000000 0.000000 -48.441068 51.591608 9.797745 0.000000 0.000000 0.000000 -3.358365 -42.678170 48.728045 -95.322232 -59.892231 -64.607551 1.444623 -72.359767 -5.372521 0.000000 0.000000 0.000000 7.125000 0.000000 0.000000 20.641403 24.544193 10.894065
-3.873680 16.424398 4.512185 594.959292 -71.701210 -602.827871 0.000000 0.000000 0.000000 17.910090 -2.584445 -19.636086 10.082105 17.455712 59.762331 1.048838 -6.141185 -18.286394 2.031002 -8.930364 -25.577856 0.000000 0.000000 0.000000 14.097471 17.416497 2.713095 -7.070210 -15.390646 49.139169 0.232573 -9.593007 -8.163343 -1.639120 8.070014 -22.926964 -15.795570 9.283039 5.028274 -12.221867 10.092576 1.864389 -5.133341 4.488912 -1.332464 -4.671788 13.160151 -7.408936 -6.941652 18.912118 14.125422 -0.105744 8.192081 5.774558 0.000000 0.000000 0.000000 9.028087 23.338581 21.319995 75.719403 -59.205779 47.666340 -19.914265 -101.451715 -11.049672 0.000000 0.000000 0.000000 -7.125000 0.000000 0.000000 -38.567689 37.907676 -8.344140 0.000000 0.000000 0.000000 -4.979087 -18.729960 58.802236 -88.490001 -59.989445 -58.692351 4.777259 -62.157655 -7.710955 0.000000 0.000000 0.000000 7.125000 0.000000 0.000000 22.553063 22.321425 13.337705
-3.853112 16.709968 4.410842 577.664649 -68.082065 -588.946649 0.000000 0.000000 0.000000 16.088627 -5.317678 -10.463871 9.255480 16.969322 56.969481 0.711360 -3.543341 -15.126810 2.070388 -9.010871 -25.829421 0.000000 0.000000 0.000000 16.257931 27.449858 1.903092 -9.103035 -16.871951 56.443374 0.212151 -8.910965 0.667678 -0.992410 6.340113 -17.774473 -18.547044 5.431542 4.068995 -13.936037 4.481126 0.549331 -5.073545 1.658440 -2.182174 -4.172398 17.260271 -8.037509 -11.658981 24.929267 15.677832 -0.889350 10.261097 7.196337 0.000000 0.000000 0.000000 35.736902 -9.982588 27.905263 103.353941 -59.314190 71.538149 -11.728184 -95.502733 -26.204911 0.000000 0.000000 0.000000 -7.125000 0.000000 0.000000 -41.243868 51.356198 7.546851 0.000000 0.000000 0.000000 -11.799899 -3.871958 56.290839 -89.229395 -59.995070 -59.332689 6.841012 -59.181485 -9.470197 0.000000 0.000000 0.000000 7.125000 0.000000 0.000000 23.610229 20.655895 15.127388
